<?xml version="1.0" encoding="utf-8"?>
<!-- Generator: Adobe Illustrator 24.0.1, SVG Export Plug-In . SVG Version: 6.00 Build 0)  -->
<svg version="1.0" id="Capa_1" xmlns="http://www.w3.org/2000/svg" xmlns:xlink="http://www.w3.org/1999/xlink" x="0px" y="0px"
	 viewBox="0 0 690.9 629.4" style="enable-background:new 0 0 690.9 629.4;" xml:space="preserve">
<style type="text/css">
	.st0{fill:#3B3938;}
	.st1{fill:#707070;}
	.st2{fill:#E50000;}
	.st3{fill:#FDFDFD;}
</style>
<g>
	<path class="st0" d="M322.3,33.9c14.7,0,29.3,0,44,0c0.6,1.5,2,0.9,3,1c17.1,1.6,33.9,4.6,50.5,9
		c107.6,28.8,190.7,123.6,204.6,233.5c0.8,6.5,0.4,13.1,2.8,19.4c0,3,0,6,0,9c-1.6,3.7-1.5,7.3,0,11c0,4.3,0,8.7,0,13
		c-1.8,0.9-1,2.6-1.1,4c-0.9,10.8-2.2,21.5-4.2,32.2c-22.5,118.1-118.2,209.2-237.2,226c-6.1,0.9-12.5,0.6-18.4,2.7c-15,0-30,0-45,0
		c-0.7-1.7-2.3-1-3.5-1.2c-28.8-3-56.9-9.3-83.2-21.4C139.4,528.7,82.9,455.3,66,351.7c-0.9-5.6-0.3-11.5-2.7-16.9c0-14,0-28,0-42
		c1.7-0.7,1-2.3,1.1-3.5c1.5-14.4,3.7-28.7,7.4-42.7c29.4-112.4,119.3-193,234-210C311.4,35.8,317.1,36.3,322.3,33.9z M516.5,288.6
		c0-0.1,0-0.1,0-0.2c29.8,0,59.6-0.1,89.5,0.1c3.9,0,4.1-2,3.7-4.7c-0.7-5.3-1.6-10.5-2.4-15.8c-3.3-20-9.2-39.2-17.2-57.7
		c-11.1-25.5-25.7-48.8-44.2-69.7c-23.5-26.7-51-48.3-82.9-63.9c-26.6-13.1-54.7-21.6-84.3-25.2c-36-4.3-71.5-2.1-106.4,7.8
		c-37.1,10.6-70.6,28.4-100,53.7c-52.4,45.3-82.9,102.3-92,170.9c-0.4,3.2,0.4,4.8,3.9,4.6c4.3-0.2,8.7-0.2,13-0.2
		c56.5,0,113-0.1,169.4,0.2c6.1,0,8.8-1.5,11.5-7c16.9-34.8,53.9-51.9,91.4-42.3c24.7,6.3,41.8,21.9,52.5,44.7
		c1.3,2.7,2.3,4.8,6,4.8C457.6,288.5,487.1,288.6,516.5,288.6z M179.5,349.1c-31.1,0-62.3,0.1-93.4-0.1c-3.9,0-5.2,0.7-4.5,4.9
		c3.8,22.9,10,45.1,19.4,66.4c50.4,114.1,171.3,177.5,294.3,154.5c109.8-20.5,195.8-109.7,213.2-220.6c0.7-4.3-0.1-5.2-4.4-5.2
		c-59.3,0.1-118.6,0.1-177.9,0c-3.7,0-5.4,1.3-7.2,4.4c-15.5,26.9-38.9,41.4-69.9,41.2c-31-0.2-54.3-14.8-69.4-42
		c-1.7-3.1-3.7-3.6-6.7-3.6C241.8,349.1,210.7,349.1,179.5,349.1z M413.8,315.1c-0.3-35.3-29.7-64.2-64.8-63.7
		c-35.6,0.5-64.1,29.4-63.8,64.7c0.3,35.3,29.4,63.9,64.7,63.7C385.1,379.6,414.1,350.3,413.8,315.1z"/>
	<path class="st1" d="M627.2,316.9c-1.5-3.7-1.6-7.3,0-11C627.2,309.5,627.2,313.2,627.2,316.9z"/>
	<path class="st2" d="M516.5,288.6c-29.5,0-59-0.1-88.5,0.1c-3.7,0-4.7-2.1-6-4.8c-10.7-22.8-27.8-38.4-52.5-44.7
		c-37.4-9.6-74.4,7.5-91.4,42.3c-2.7,5.5-5.4,7.1-11.5,7c-56.5-0.3-113-0.2-169.4-0.2c-4.3,0-8.7,0-13,0.2c-3.5,0.2-4.3-1.5-3.9-4.6
		c9.1-68.6,39.6-125.7,92-170.9c29.3-25.3,62.8-43.1,100-53.7c34.8-9.9,70.3-12.1,106.4-7.8c29.6,3.6,57.7,12.1,84.3,25.2
		c31.9,15.7,59.4,37.2,82.9,63.9c18.4,21,33,44.3,44.2,69.7c8.1,18.5,13.9,37.8,17.2,57.7c0.9,5.2,1.7,10.5,2.4,15.8
		c0.4,2.7,0.2,4.7-3.7,4.7c-29.8-0.2-59.6-0.1-89.5-0.1C516.5,288.5,516.5,288.5,516.5,288.6z"/>
	<path class="st3" d="M179.5,349.1c31.1,0,62.3,0,93.4,0c3,0,5,0.5,6.7,3.6c15.1,27.1,38.4,41.8,69.4,42c31,0.2,54.4-14.3,69.9-41.2
		c1.8-3.1,3.5-4.4,7.2-4.4c59.3,0.1,118.6,0.1,177.9,0c4.3,0,5.1,0.9,4.4,5.2c-17.3,110.9-103.4,200.1-213.2,220.6
		c-123,23-243.9-40.5-294.3-154.5c-9.4-21.3-15.6-43.5-19.4-66.4c-0.7-4.2,0.7-4.9,4.5-4.9C117.2,349.1,148.4,349.1,179.5,349.1z"/>
	<path class="st3" d="M413.8,315.1c0.3,35.2-28.6,64.5-63.8,64.7c-35.4,0.2-64.4-28.4-64.7-63.7c-0.3-35.3,28.2-64.1,63.8-64.7
		C384.1,250.9,413.5,279.8,413.8,315.1z"/>
</g>
</svg>
